# Handwheel Ring - Torus (Updated)
# Major radius: 0.1m, Minor radius: 0.01m
mtllib handwheel_ring.mtl
o handwheel_ring
usemtl ring_material

v 0.110000 0.000000 0.000000
v 0.109239 0.000000 0.003827
v 0.107071 0.000000 0.007071
v 0.103827 0.000000 0.009239
v 0.100000 0.000000 0.010000
v 0.096173 0.000000 0.009239
v 0.092929 0.000000 0.007071
v 0.090761 0.000000 0.003827
v 0.090000 0.000000 0.000000
v 0.090761 0.000000 -0.003827
v 0.092929 0.000000 -0.007071
v 0.096173 0.000000 -0.009239
v 0.100000 0.000000 -0.010000
v 0.103827 0.000000 -0.009239
v 0.107071 0.000000 -0.007071
v 0.109239 0.000000 -0.003827
v 0.107886 0.021460 0.000000
v 0.107140 0.021311 0.003827
v 0.105014 0.020889 0.007071
v 0.101832 0.020256 0.009239
v 0.098079 0.019509 0.010000
v 0.094325 0.018762 0.009239
v 0.091143 0.018130 0.007071
v 0.089017 0.017707 0.003827
v 0.088271 0.017558 0.000000
v 0.089017 0.017707 -0.003827
v 0.091143 0.018130 -0.007071
v 0.094325 0.018762 -0.009239
v 0.098079 0.019509 -0.010000
v 0.101832 0.020256 -0.009239
v 0.105014 0.020889 -0.007071
v 0.107140 0.021311 -0.003827
v 0.101627 0.042095 0.000000
v 0.100923 0.041804 0.003827
v 0.098921 0.040974 0.007071
v 0.095923 0.039733 0.009239
v 0.092388 0.038268 0.010000
v 0.088852 0.036804 0.009239
v 0.085855 0.035562 0.007071
v 0.083852 0.034733 0.003827
v 0.083149 0.034442 0.000000
v 0.083852 0.034733 -0.003827
v 0.085855 0.035562 -0.007071
v 0.088852 0.036804 -0.009239
v 0.092388 0.038268 -0.010000
v 0.095923 0.039733 -0.009239
v 0.098921 0.040974 -0.007071
v 0.100923 0.041804 -0.003827
v 0.091462 0.061113 0.000000
v 0.090829 0.060690 0.003827
v 0.089026 0.059485 0.007071
v 0.086329 0.057683 0.009239
v 0.083147 0.055557 0.010000
v 0.079965 0.053431 0.009239
v 0.077268 0.051629 0.007071
v 0.075465 0.050424 0.003827
v 0.074832 0.050001 0.000000
v 0.075465 0.050424 -0.003827
v 0.077268 0.051629 -0.007071
v 0.079965 0.053431 -0.009239
v 0.083147 0.055557 -0.010000
v 0.086329 0.057683 -0.009239
v 0.089026 0.059485 -0.007071
v 0.090829 0.060690 -0.003827
v 0.077782 0.077782 0.000000
v 0.077243 0.077243 0.003827
v 0.075711 0.075711 0.007071
v 0.073417 0.073417 0.009239
v 0.070711 0.070711 0.010000
v 0.068005 0.068005 0.009239
v 0.065711 0.065711 0.007071
v 0.064178 0.064178 0.003827
v 0.063640 0.063640 0.000000
v 0.064178 0.064178 -0.003827
v 0.065711 0.065711 -0.007071
v 0.068005 0.068005 -0.009239
v 0.070711 0.070711 -0.010000
v 0.073417 0.073417 -0.009239
v 0.075711 0.075711 -0.007071
v 0.077243 0.077243 -0.003827
v 0.061113 0.091462 0.000000
v 0.060690 0.090829 0.003827
v 0.059485 0.089026 0.007071
v 0.057683 0.086329 0.009239
v 0.055557 0.083147 0.010000
v 0.053431 0.079965 0.009239
v 0.051629 0.077268 0.007071
v 0.050424 0.075465 0.003827
v 0.050001 0.074832 0.000000
v 0.050424 0.075465 -0.003827
v 0.051629 0.077268 -0.007071
v 0.053431 0.079965 -0.009239
v 0.055557 0.083147 -0.010000
v 0.057683 0.086329 -0.009239
v 0.059485 0.089026 -0.007071
v 0.060690 0.090829 -0.003827
v 0.042095 0.101627 0.000000
v 0.041804 0.100923 0.003827
v 0.040974 0.098921 0.007071
v 0.039733 0.095923 0.009239
v 0.038268 0.092388 0.010000
v 0.036804 0.088852 0.009239
v 0.035562 0.085855 0.007071
v 0.034733 0.083852 0.003827
v 0.034442 0.083149 0.000000
v 0.034733 0.083852 -0.003827
v 0.035562 0.085855 -0.007071
v 0.036804 0.088852 -0.009239
v 0.038268 0.092388 -0.010000
v 0.039733 0.095923 -0.009239
v 0.040974 0.098921 -0.007071
v 0.041804 0.100923 -0.003827
v 0.021460 0.107886 0.000000
v 0.021311 0.107140 0.003827
v 0.020889 0.105014 0.007071
v 0.020256 0.101832 0.009239
v 0.019509 0.098079 0.010000
v 0.018762 0.094325 0.009239
v 0.018130 0.091143 0.007071
v 0.017707 0.089017 0.003827
v 0.017558 0.088271 0.000000
v 0.017707 0.089017 -0.003827
v 0.018130 0.091143 -0.007071
v 0.018762 0.094325 -0.009239
v 0.019509 0.098079 -0.010000
v 0.020256 0.101832 -0.009239
v 0.020889 0.105014 -0.007071
v 0.021311 0.107140 -0.003827
v 0.000000 0.110000 0.000000
v 0.000000 0.109239 0.003827
v 0.000000 0.107071 0.007071
v 0.000000 0.103827 0.009239
v 0.000000 0.100000 0.010000
v 0.000000 0.096173 0.009239
v 0.000000 0.092929 0.007071
v 0.000000 0.090761 0.003827
v 0.000000 0.090000 0.000000
v 0.000000 0.090761 -0.003827
v 0.000000 0.092929 -0.007071
v 0.000000 0.096173 -0.009239
v 0.000000 0.100000 -0.010000
v 0.000000 0.103827 -0.009239
v 0.000000 0.107071 -0.007071
v 0.000000 0.109239 -0.003827
v -0.021460 0.107886 0.000000
v -0.021311 0.107140 0.003827
v -0.020889 0.105014 0.007071
v -0.020256 0.101832 0.009239
v -0.019509 0.098079 0.010000
v -0.018762 0.094325 0.009239
v -0.018130 0.091143 0.007071
v -0.017707 0.089017 0.003827
v -0.017558 0.088271 0.000000
v -0.017707 0.089017 -0.003827
v -0.018130 0.091143 -0.007071
v -0.018762 0.094325 -0.009239
v -0.019509 0.098079 -0.010000
v -0.020256 0.101832 -0.009239
v -0.020889 0.105014 -0.007071
v -0.021311 0.107140 -0.003827
v -0.042095 0.101627 0.000000
v -0.041804 0.100923 0.003827
v -0.040974 0.098921 0.007071
v -0.039733 0.095923 0.009239
v -0.038268 0.092388 0.010000
v -0.036804 0.088852 0.009239
v -0.035562 0.085855 0.007071
v -0.034733 0.083852 0.003827
v -0.034442 0.083149 0.000000
v -0.034733 0.083852 -0.003827
v -0.035562 0.085855 -0.007071
v -0.036804 0.088852 -0.009239
v -0.038268 0.092388 -0.010000
v -0.039733 0.095923 -0.009239
v -0.040974 0.098921 -0.007071
v -0.041804 0.100923 -0.003827
v -0.061113 0.091462 0.000000
v -0.060690 0.090829 0.003827
v -0.059485 0.089026 0.007071
v -0.057683 0.086329 0.009239
v -0.055557 0.083147 0.010000
v -0.053431 0.079965 0.009239
v -0.051629 0.077268 0.007071
v -0.050424 0.075465 0.003827
v -0.050001 0.074832 0.000000
v -0.050424 0.075465 -0.003827
v -0.051629 0.077268 -0.007071
v -0.053431 0.079965 -0.009239
v -0.055557 0.083147 -0.010000
v -0.057683 0.086329 -0.009239
v -0.059485 0.089026 -0.007071
v -0.060690 0.090829 -0.003827
v -0.077782 0.077782 0.000000
v -0.077243 0.077243 0.003827
v -0.075711 0.075711 0.007071
v -0.073417 0.073417 0.009239
v -0.070711 0.070711 0.010000
v -0.068005 0.068005 0.009239
v -0.065711 0.065711 0.007071
v -0.064178 0.064178 0.003827
v -0.063640 0.063640 0.000000
v -0.064178 0.064178 -0.003827
v -0.065711 0.065711 -0.007071
v -0.068005 0.068005 -0.009239
v -0.070711 0.070711 -0.010000
v -0.073417 0.073417 -0.009239
v -0.075711 0.075711 -0.007071
v -0.077243 0.077243 -0.003827
v -0.091462 0.061113 0.000000
v -0.090829 0.060690 0.003827
v -0.089026 0.059485 0.007071
v -0.086329 0.057683 0.009239
v -0.083147 0.055557 0.010000
v -0.079965 0.053431 0.009239
v -0.077268 0.051629 0.007071
v -0.075465 0.050424 0.003827
v -0.074832 0.050001 0.000000
v -0.075465 0.050424 -0.003827
v -0.077268 0.051629 -0.007071
v -0.079965 0.053431 -0.009239
v -0.083147 0.055557 -0.010000
v -0.086329 0.057683 -0.009239
v -0.089026 0.059485 -0.007071
v -0.090829 0.060690 -0.003827
v -0.101627 0.042095 0.000000
v -0.100923 0.041804 0.003827
v -0.098921 0.040974 0.007071
v -0.095923 0.039733 0.009239
v -0.092388 0.038268 0.010000
v -0.088852 0.036804 0.009239
v -0.085855 0.035562 0.007071
v -0.083852 0.034733 0.003827
v -0.083149 0.034442 0.000000
v -0.083852 0.034733 -0.003827
v -0.085855 0.035562 -0.007071
v -0.088852 0.036804 -0.009239
v -0.092388 0.038268 -0.010000
v -0.095923 0.039733 -0.009239
v -0.098921 0.040974 -0.007071
v -0.100923 0.041804 -0.003827
v -0.107886 0.021460 0.000000
v -0.107140 0.021311 0.003827
v -0.105014 0.020889 0.007071
v -0.101832 0.020256 0.009239
v -0.098079 0.019509 0.010000
v -0.094325 0.018762 0.009239
v -0.091143 0.018130 0.007071
v -0.089017 0.017707 0.003827
v -0.088271 0.017558 0.000000
v -0.089017 0.017707 -0.003827
v -0.091143 0.018130 -0.007071
v -0.094325 0.018762 -0.009239
v -0.098079 0.019509 -0.010000
v -0.101832 0.020256 -0.009239
v -0.105014 0.020889 -0.007071
v -0.107140 0.021311 -0.003827
v -0.110000 0.000000 0.000000
v -0.109239 0.000000 0.003827
v -0.107071 0.000000 0.007071
v -0.103827 0.000000 0.009239
v -0.100000 0.000000 0.010000
v -0.096173 0.000000 0.009239
v -0.092929 0.000000 0.007071
v -0.090761 0.000000 0.003827
v -0.090000 0.000000 0.000000
v -0.090761 0.000000 -0.003827
v -0.092929 0.000000 -0.007071
v -0.096173 0.000000 -0.009239
v -0.100000 0.000000 -0.010000
v -0.103827 0.000000 -0.009239
v -0.107071 0.000000 -0.007071
v -0.109239 0.000000 -0.003827
v -0.107886 -0.021460 0.000000
v -0.107140 -0.021311 0.003827
v -0.105014 -0.020889 0.007071
v -0.101832 -0.020256 0.009239
v -0.098079 -0.019509 0.010000
v -0.094325 -0.018762 0.009239
v -0.091143 -0.018130 0.007071
v -0.089017 -0.017707 0.003827
v -0.088271 -0.017558 0.000000
v -0.089017 -0.017707 -0.003827
v -0.091143 -0.018130 -0.007071
v -0.094325 -0.018762 -0.009239
v -0.098079 -0.019509 -0.010000
v -0.101832 -0.020256 -0.009239
v -0.105014 -0.020889 -0.007071
v -0.107140 -0.021311 -0.003827
v -0.101627 -0.042095 0.000000
v -0.100923 -0.041804 0.003827
v -0.098921 -0.040974 0.007071
v -0.095923 -0.039733 0.009239
v -0.092388 -0.038268 0.010000
v -0.088852 -0.036804 0.009239
v -0.085855 -0.035562 0.007071
v -0.083852 -0.034733 0.003827
v -0.083149 -0.034442 0.000000
v -0.083852 -0.034733 -0.003827
v -0.085855 -0.035562 -0.007071
v -0.088852 -0.036804 -0.009239
v -0.092388 -0.038268 -0.010000
v -0.095923 -0.039733 -0.009239
v -0.098921 -0.040974 -0.007071
v -0.100923 -0.041804 -0.003827
v -0.091462 -0.061113 0.000000
v -0.090829 -0.060690 0.003827
v -0.089026 -0.059485 0.007071
v -0.086329 -0.057683 0.009239
v -0.083147 -0.055557 0.010000
v -0.079965 -0.053431 0.009239
v -0.077268 -0.051629 0.007071
v -0.075465 -0.050424 0.003827
v -0.074832 -0.050001 0.000000
v -0.075465 -0.050424 -0.003827
v -0.077268 -0.051629 -0.007071
v -0.079965 -0.053431 -0.009239
v -0.083147 -0.055557 -0.010000
v -0.086329 -0.057683 -0.009239
v -0.089026 -0.059485 -0.007071
v -0.090829 -0.060690 -0.003827
v -0.077782 -0.077782 0.000000
v -0.077243 -0.077243 0.003827
v -0.075711 -0.075711 0.007071
v -0.073417 -0.073417 0.009239
v -0.070711 -0.070711 0.010000
v -0.068005 -0.068005 0.009239
v -0.065711 -0.065711 0.007071
v -0.064178 -0.064178 0.003827
v -0.063640 -0.063640 0.000000
v -0.064178 -0.064178 -0.003827
v -0.065711 -0.065711 -0.007071
v -0.068005 -0.068005 -0.009239
v -0.070711 -0.070711 -0.010000
v -0.073417 -0.073417 -0.009239
v -0.075711 -0.075711 -0.007071
v -0.077243 -0.077243 -0.003827
v -0.061113 -0.091462 0.000000
v -0.060690 -0.090829 0.003827
v -0.059485 -0.089026 0.007071
v -0.057683 -0.086329 0.009239
v -0.055557 -0.083147 0.010000
v -0.053431 -0.079965 0.009239
v -0.051629 -0.077268 0.007071
v -0.050424 -0.075465 0.003827
v -0.050001 -0.074832 0.000000
v -0.050424 -0.075465 -0.003827
v -0.051629 -0.077268 -0.007071
v -0.053431 -0.079965 -0.009239
v -0.055557 -0.083147 -0.010000
v -0.057683 -0.086329 -0.009239
v -0.059485 -0.089026 -0.007071
v -0.060690 -0.090829 -0.003827
v -0.042095 -0.101627 0.000000
v -0.041804 -0.100923 0.003827
v -0.040974 -0.098921 0.007071
v -0.039733 -0.095923 0.009239
v -0.038268 -0.092388 0.010000
v -0.036804 -0.088852 0.009239
v -0.035562 -0.085855 0.007071
v -0.034733 -0.083852 0.003827
v -0.034442 -0.083149 0.000000
v -0.034733 -0.083852 -0.003827
v -0.035562 -0.085855 -0.007071
v -0.036804 -0.088852 -0.009239
v -0.038268 -0.092388 -0.010000
v -0.039733 -0.095923 -0.009239
v -0.040974 -0.098921 -0.007071
v -0.041804 -0.100923 -0.003827
v -0.021460 -0.107886 0.000000
v -0.021311 -0.107140 0.003827
v -0.020889 -0.105014 0.007071
v -0.020256 -0.101832 0.009239
v -0.019509 -0.098079 0.010000
v -0.018762 -0.094325 0.009239
v -0.018130 -0.091143 0.007071
v -0.017707 -0.089017 0.003827
v -0.017558 -0.088271 0.000000
v -0.017707 -0.089017 -0.003827
v -0.018130 -0.091143 -0.007071
v -0.018762 -0.094325 -0.009239
v -0.019509 -0.098079 -0.010000
v -0.020256 -0.101832 -0.009239
v -0.020889 -0.105014 -0.007071
v -0.021311 -0.107140 -0.003827
v -0.000000 -0.110000 0.000000
v -0.000000 -0.109239 0.003827
v -0.000000 -0.107071 0.007071
v -0.000000 -0.103827 0.009239
v -0.000000 -0.100000 0.010000
v -0.000000 -0.096173 0.009239
v -0.000000 -0.092929 0.007071
v -0.000000 -0.090761 0.003827
v -0.000000 -0.090000 0.000000
v -0.000000 -0.090761 -0.003827
v -0.000000 -0.092929 -0.007071
v -0.000000 -0.096173 -0.009239
v -0.000000 -0.100000 -0.010000
v -0.000000 -0.103827 -0.009239
v -0.000000 -0.107071 -0.007071
v -0.000000 -0.109239 -0.003827
v 0.021460 -0.107886 0.000000
v 0.021311 -0.107140 0.003827
v 0.020889 -0.105014 0.007071
v 0.020256 -0.101832 0.009239
v 0.019509 -0.098079 0.010000
v 0.018762 -0.094325 0.009239
v 0.018130 -0.091143 0.007071
v 0.017707 -0.089017 0.003827
v 0.017558 -0.088271 0.000000
v 0.017707 -0.089017 -0.003827
v 0.018130 -0.091143 -0.007071
v 0.018762 -0.094325 -0.009239
v 0.019509 -0.098079 -0.010000
v 0.020256 -0.101832 -0.009239
v 0.020889 -0.105014 -0.007071
v 0.021311 -0.107140 -0.003827
v 0.042095 -0.101627 0.000000
v 0.041804 -0.100923 0.003827
v 0.040974 -0.098921 0.007071
v 0.039733 -0.095923 0.009239
v 0.038268 -0.092388 0.010000
v 0.036804 -0.088852 0.009239
v 0.035562 -0.085855 0.007071
v 0.034733 -0.083852 0.003827
v 0.034442 -0.083149 0.000000
v 0.034733 -0.083852 -0.003827
v 0.035562 -0.085855 -0.007071
v 0.036804 -0.088852 -0.009239
v 0.038268 -0.092388 -0.010000
v 0.039733 -0.095923 -0.009239
v 0.040974 -0.098921 -0.007071
v 0.041804 -0.100923 -0.003827
v 0.061113 -0.091462 0.000000
v 0.060690 -0.090829 0.003827
v 0.059485 -0.089026 0.007071
v 0.057683 -0.086329 0.009239
v 0.055557 -0.083147 0.010000
v 0.053431 -0.079965 0.009239
v 0.051629 -0.077268 0.007071
v 0.050424 -0.075465 0.003827
v 0.050001 -0.074832 0.000000
v 0.050424 -0.075465 -0.003827
v 0.051629 -0.077268 -0.007071
v 0.053431 -0.079965 -0.009239
v 0.055557 -0.083147 -0.010000
v 0.057683 -0.086329 -0.009239
v 0.059485 -0.089026 -0.007071
v 0.060690 -0.090829 -0.003827
v 0.077782 -0.077782 0.000000
v 0.077243 -0.077243 0.003827
v 0.075711 -0.075711 0.007071
v 0.073417 -0.073417 0.009239
v 0.070711 -0.070711 0.010000
v 0.068005 -0.068005 0.009239
v 0.065711 -0.065711 0.007071
v 0.064178 -0.064178 0.003827
v 0.063640 -0.063640 0.000000
v 0.064178 -0.064178 -0.003827
v 0.065711 -0.065711 -0.007071
v 0.068005 -0.068005 -0.009239
v 0.070711 -0.070711 -0.010000
v 0.073417 -0.073417 -0.009239
v 0.075711 -0.075711 -0.007071
v 0.077243 -0.077243 -0.003827
v 0.091462 -0.061113 0.000000
v 0.090829 -0.060690 0.003827
v 0.089026 -0.059485 0.007071
v 0.086329 -0.057683 0.009239
v 0.083147 -0.055557 0.010000
v 0.079965 -0.053431 0.009239
v 0.077268 -0.051629 0.007071
v 0.075465 -0.050424 0.003827
v 0.074832 -0.050001 0.000000
v 0.075465 -0.050424 -0.003827
v 0.077268 -0.051629 -0.007071
v 0.079965 -0.053431 -0.009239
v 0.083147 -0.055557 -0.010000
v 0.086329 -0.057683 -0.009239
v 0.089026 -0.059485 -0.007071
v 0.090829 -0.060690 -0.003827
v 0.101627 -0.042095 0.000000
v 0.100923 -0.041804 0.003827
v 0.098921 -0.040974 0.007071
v 0.095923 -0.039733 0.009239
v 0.092388 -0.038268 0.010000
v 0.088852 -0.036804 0.009239
v 0.085855 -0.035562 0.007071
v 0.083852 -0.034733 0.003827
v 0.083149 -0.034442 0.000000
v 0.083852 -0.034733 -0.003827
v 0.085855 -0.035562 -0.007071
v 0.088852 -0.036804 -0.009239
v 0.092388 -0.038268 -0.010000
v 0.095923 -0.039733 -0.009239
v 0.098921 -0.040974 -0.007071
v 0.100923 -0.041804 -0.003827
v 0.107886 -0.021460 0.000000
v 0.107140 -0.021311 0.003827
v 0.105014 -0.020889 0.007071
v 0.101832 -0.020256 0.009239
v 0.098079 -0.019509 0.010000
v 0.094325 -0.018762 0.009239
v 0.091143 -0.018130 0.007071
v 0.089017 -0.017707 0.003827
v 0.088271 -0.017558 0.000000
v 0.089017 -0.017707 -0.003827
v 0.091143 -0.018130 -0.007071
v 0.094325 -0.018762 -0.009239
v 0.098079 -0.019509 -0.010000
v 0.101832 -0.020256 -0.009239
v 0.105014 -0.020889 -0.007071
v 0.107140 -0.021311 -0.003827

f 1 18 2
f 1 17 18
f 2 19 3
f 2 18 19
f 3 20 4
f 3 19 20
f 4 21 5
f 4 20 21
f 5 22 6
f 5 21 22
f 6 23 7
f 6 22 23
f 7 24 8
f 7 23 24
f 8 25 9
f 8 24 25
f 9 26 10
f 9 25 26
f 10 27 11
f 10 26 27
f 11 28 12
f 11 27 28
f 12 29 13
f 12 28 29
f 13 30 14
f 13 29 30
f 14 31 15
f 14 30 31
f 15 32 16
f 15 31 32
f 16 17 1
f 16 32 17
f 17 34 18
f 17 33 34
f 18 35 19
f 18 34 35
f 19 36 20
f 19 35 36
f 20 37 21
f 20 36 37
f 21 38 22
f 21 37 38
f 22 39 23
f 22 38 39
f 23 40 24
f 23 39 40
f 24 41 25
f 24 40 41
f 25 42 26
f 25 41 42
f 26 43 27
f 26 42 43
f 27 44 28
f 27 43 44
f 28 45 29
f 28 44 45
f 29 46 30
f 29 45 46
f 30 47 31
f 30 46 47
f 31 48 32
f 31 47 48
f 32 33 17
f 32 48 33
f 33 50 34
f 33 49 50
f 34 51 35
f 34 50 51
f 35 52 36
f 35 51 52
f 36 53 37
f 36 52 53
f 37 54 38
f 37 53 54
f 38 55 39
f 38 54 55
f 39 56 40
f 39 55 56
f 40 57 41
f 40 56 57
f 41 58 42
f 41 57 58
f 42 59 43
f 42 58 59
f 43 60 44
f 43 59 60
f 44 61 45
f 44 60 61
f 45 62 46
f 45 61 62
f 46 63 47
f 46 62 63
f 47 64 48
f 47 63 64
f 48 49 33
f 48 64 49
f 49 66 50
f 49 65 66
f 50 67 51
f 50 66 67
f 51 68 52
f 51 67 68
f 52 69 53
f 52 68 69
f 53 70 54
f 53 69 70
f 54 71 55
f 54 70 71
f 55 72 56
f 55 71 72
f 56 73 57
f 56 72 73
f 57 74 58
f 57 73 74
f 58 75 59
f 58 74 75
f 59 76 60
f 59 75 76
f 60 77 61
f 60 76 77
f 61 78 62
f 61 77 78
f 62 79 63
f 62 78 79
f 63 80 64
f 63 79 80
f 64 65 49
f 64 80 65
f 65 82 66
f 65 81 82
f 66 83 67
f 66 82 83
f 67 84 68
f 67 83 84
f 68 85 69
f 68 84 85
f 69 86 70
f 69 85 86
f 70 87 71
f 70 86 87
f 71 88 72
f 71 87 88
f 72 89 73
f 72 88 89
f 73 90 74
f 73 89 90
f 74 91 75
f 74 90 91
f 75 92 76
f 75 91 92
f 76 93 77
f 76 92 93
f 77 94 78
f 77 93 94
f 78 95 79
f 78 94 95
f 79 96 80
f 79 95 96
f 80 81 65
f 80 96 81
f 81 98 82
f 81 97 98
f 82 99 83
f 82 98 99
f 83 100 84
f 83 99 100
f 84 101 85
f 84 100 101
f 85 102 86
f 85 101 102
f 86 103 87
f 86 102 103
f 87 104 88
f 87 103 104
f 88 105 89
f 88 104 105
f 89 106 90
f 89 105 106
f 90 107 91
f 90 106 107
f 91 108 92
f 91 107 108
f 92 109 93
f 92 108 109
f 93 110 94
f 93 109 110
f 94 111 95
f 94 110 111
f 95 112 96
f 95 111 112
f 96 97 81
f 96 112 97
f 97 114 98
f 97 113 114
f 98 115 99
f 98 114 115
f 99 116 100
f 99 115 116
f 100 117 101
f 100 116 117
f 101 118 102
f 101 117 118
f 102 119 103
f 102 118 119
f 103 120 104
f 103 119 120
f 104 121 105
f 104 120 121
f 105 122 106
f 105 121 122
f 106 123 107
f 106 122 123
f 107 124 108
f 107 123 124
f 108 125 109
f 108 124 125
f 109 126 110
f 109 125 126
f 110 127 111
f 110 126 127
f 111 128 112
f 111 127 128
f 112 113 97
f 112 128 113
f 113 130 114
f 113 129 130
f 114 131 115
f 114 130 131
f 115 132 116
f 115 131 132
f 116 133 117
f 116 132 133
f 117 134 118
f 117 133 134
f 118 135 119
f 118 134 135
f 119 136 120
f 119 135 136
f 120 137 121
f 120 136 137
f 121 138 122
f 121 137 138
f 122 139 123
f 122 138 139
f 123 140 124
f 123 139 140
f 124 141 125
f 124 140 141
f 125 142 126
f 125 141 142
f 126 143 127
f 126 142 143
f 127 144 128
f 127 143 144
f 128 129 113
f 128 144 129
f 129 146 130
f 129 145 146
f 130 147 131
f 130 146 147
f 131 148 132
f 131 147 148
f 132 149 133
f 132 148 149
f 133 150 134
f 133 149 150
f 134 151 135
f 134 150 151
f 135 152 136
f 135 151 152
f 136 153 137
f 136 152 153
f 137 154 138
f 137 153 154
f 138 155 139
f 138 154 155
f 139 156 140
f 139 155 156
f 140 157 141
f 140 156 157
f 141 158 142
f 141 157 158
f 142 159 143
f 142 158 159
f 143 160 144
f 143 159 160
f 144 145 129
f 144 160 145
f 145 162 146
f 145 161 162
f 146 163 147
f 146 162 163
f 147 164 148
f 147 163 164
f 148 165 149
f 148 164 165
f 149 166 150
f 149 165 166
f 150 167 151
f 150 166 167
f 151 168 152
f 151 167 168
f 152 169 153
f 152 168 169
f 153 170 154
f 153 169 170
f 154 171 155
f 154 170 171
f 155 172 156
f 155 171 172
f 156 173 157
f 156 172 173
f 157 174 158
f 157 173 174
f 158 175 159
f 158 174 175
f 159 176 160
f 159 175 176
f 160 161 145
f 160 176 161
f 161 178 162
f 161 177 178
f 162 179 163
f 162 178 179
f 163 180 164
f 163 179 180
f 164 181 165
f 164 180 181
f 165 182 166
f 165 181 182
f 166 183 167
f 166 182 183
f 167 184 168
f 167 183 184
f 168 185 169
f 168 184 185
f 169 186 170
f 169 185 186
f 170 187 171
f 170 186 187
f 171 188 172
f 171 187 188
f 172 189 173
f 172 188 189
f 173 190 174
f 173 189 190
f 174 191 175
f 174 190 191
f 175 192 176
f 175 191 192
f 176 177 161
f 176 192 177
f 177 194 178
f 177 193 194
f 178 195 179
f 178 194 195
f 179 196 180
f 179 195 196
f 180 197 181
f 180 196 197
f 181 198 182
f 181 197 198
f 182 199 183
f 182 198 199
f 183 200 184
f 183 199 200
f 184 201 185
f 184 200 201
f 185 202 186
f 185 201 202
f 186 203 187
f 186 202 203
f 187 204 188
f 187 203 204
f 188 205 189
f 188 204 205
f 189 206 190
f 189 205 206
f 190 207 191
f 190 206 207
f 191 208 192
f 191 207 208
f 192 193 177
f 192 208 193
f 193 210 194
f 193 209 210
f 194 211 195
f 194 210 211
f 195 212 196
f 195 211 212
f 196 213 197
f 196 212 213
f 197 214 198
f 197 213 214
f 198 215 199
f 198 214 215
f 199 216 200
f 199 215 216
f 200 217 201
f 200 216 217
f 201 218 202
f 201 217 218
f 202 219 203
f 202 218 219
f 203 220 204
f 203 219 220
f 204 221 205
f 204 220 221
f 205 222 206
f 205 221 222
f 206 223 207
f 206 222 223
f 207 224 208
f 207 223 224
f 208 209 193
f 208 224 209
f 209 226 210
f 209 225 226
f 210 227 211
f 210 226 227
f 211 228 212
f 211 227 228
f 212 229 213
f 212 228 229
f 213 230 214
f 213 229 230
f 214 231 215
f 214 230 231
f 215 232 216
f 215 231 232
f 216 233 217
f 216 232 233
f 217 234 218
f 217 233 234
f 218 235 219
f 218 234 235
f 219 236 220
f 219 235 236
f 220 237 221
f 220 236 237
f 221 238 222
f 221 237 238
f 222 239 223
f 222 238 239
f 223 240 224
f 223 239 240
f 224 225 209
f 224 240 225
f 225 242 226
f 225 241 242
f 226 243 227
f 226 242 243
f 227 244 228
f 227 243 244
f 228 245 229
f 228 244 245
f 229 246 230
f 229 245 246
f 230 247 231
f 230 246 247
f 231 248 232
f 231 247 248
f 232 249 233
f 232 248 249
f 233 250 234
f 233 249 250
f 234 251 235
f 234 250 251
f 235 252 236
f 235 251 252
f 236 253 237
f 236 252 253
f 237 254 238
f 237 253 254
f 238 255 239
f 238 254 255
f 239 256 240
f 239 255 256
f 240 241 225
f 240 256 241
f 241 258 242
f 241 257 258
f 242 259 243
f 242 258 259
f 243 260 244
f 243 259 260
f 244 261 245
f 244 260 261
f 245 262 246
f 245 261 262
f 246 263 247
f 246 262 263
f 247 264 248
f 247 263 264
f 248 265 249
f 248 264 265
f 249 266 250
f 249 265 266
f 250 267 251
f 250 266 267
f 251 268 252
f 251 267 268
f 252 269 253
f 252 268 269
f 253 270 254
f 253 269 270
f 254 271 255
f 254 270 271
f 255 272 256
f 255 271 272
f 256 257 241
f 256 272 257
f 257 274 258
f 257 273 274
f 258 275 259
f 258 274 275
f 259 276 260
f 259 275 276
f 260 277 261
f 260 276 277
f 261 278 262
f 261 277 278
f 262 279 263
f 262 278 279
f 263 280 264
f 263 279 280
f 264 281 265
f 264 280 281
f 265 282 266
f 265 281 282
f 266 283 267
f 266 282 283
f 267 284 268
f 267 283 284
f 268 285 269
f 268 284 285
f 269 286 270
f 269 285 286
f 270 287 271
f 270 286 287
f 271 288 272
f 271 287 288
f 272 273 257
f 272 288 273
f 273 290 274
f 273 289 290
f 274 291 275
f 274 290 291
f 275 292 276
f 275 291 292
f 276 293 277
f 276 292 293
f 277 294 278
f 277 293 294
f 278 295 279
f 278 294 295
f 279 296 280
f 279 295 296
f 280 297 281
f 280 296 297
f 281 298 282
f 281 297 298
f 282 299 283
f 282 298 299
f 283 300 284
f 283 299 300
f 284 301 285
f 284 300 301
f 285 302 286
f 285 301 302
f 286 303 287
f 286 302 303
f 287 304 288
f 287 303 304
f 288 289 273
f 288 304 289
f 289 306 290
f 289 305 306
f 290 307 291
f 290 306 307
f 291 308 292
f 291 307 308
f 292 309 293
f 292 308 309
f 293 310 294
f 293 309 310
f 294 311 295
f 294 310 311
f 295 312 296
f 295 311 312
f 296 313 297
f 296 312 313
f 297 314 298
f 297 313 314
f 298 315 299
f 298 314 315
f 299 316 300
f 299 315 316
f 300 317 301
f 300 316 317
f 301 318 302
f 301 317 318
f 302 319 303
f 302 318 319
f 303 320 304
f 303 319 320
f 304 305 289
f 304 320 305
f 305 322 306
f 305 321 322
f 306 323 307
f 306 322 323
f 307 324 308
f 307 323 324
f 308 325 309
f 308 324 325
f 309 326 310
f 309 325 326
f 310 327 311
f 310 326 327
f 311 328 312
f 311 327 328
f 312 329 313
f 312 328 329
f 313 330 314
f 313 329 330
f 314 331 315
f 314 330 331
f 315 332 316
f 315 331 332
f 316 333 317
f 316 332 333
f 317 334 318
f 317 333 334
f 318 335 319
f 318 334 335
f 319 336 320
f 319 335 336
f 320 321 305
f 320 336 321
f 321 338 322
f 321 337 338
f 322 339 323
f 322 338 339
f 323 340 324
f 323 339 340
f 324 341 325
f 324 340 341
f 325 342 326
f 325 341 342
f 326 343 327
f 326 342 343
f 327 344 328
f 327 343 344
f 328 345 329
f 328 344 345
f 329 346 330
f 329 345 346
f 330 347 331
f 330 346 347
f 331 348 332
f 331 347 348
f 332 349 333
f 332 348 349
f 333 350 334
f 333 349 350
f 334 351 335
f 334 350 351
f 335 352 336
f 335 351 352
f 336 337 321
f 336 352 337
f 337 354 338
f 337 353 354
f 338 355 339
f 338 354 355
f 339 356 340
f 339 355 356
f 340 357 341
f 340 356 357
f 341 358 342
f 341 357 358
f 342 359 343
f 342 358 359
f 343 360 344
f 343 359 360
f 344 361 345
f 344 360 361
f 345 362 346
f 345 361 362
f 346 363 347
f 346 362 363
f 347 364 348
f 347 363 364
f 348 365 349
f 348 364 365
f 349 366 350
f 349 365 366
f 350 367 351
f 350 366 367
f 351 368 352
f 351 367 368
f 352 353 337
f 352 368 353
f 353 370 354
f 353 369 370
f 354 371 355
f 354 370 371
f 355 372 356
f 355 371 372
f 356 373 357
f 356 372 373
f 357 374 358
f 357 373 374
f 358 375 359
f 358 374 375
f 359 376 360
f 359 375 376
f 360 377 361
f 360 376 377
f 361 378 362
f 361 377 378
f 362 379 363
f 362 378 379
f 363 380 364
f 363 379 380
f 364 381 365
f 364 380 381
f 365 382 366
f 365 381 382
f 366 383 367
f 366 382 383
f 367 384 368
f 367 383 384
f 368 369 353
f 368 384 369
f 369 386 370
f 369 385 386
f 370 387 371
f 370 386 387
f 371 388 372
f 371 387 388
f 372 389 373
f 372 388 389
f 373 390 374
f 373 389 390
f 374 391 375
f 374 390 391
f 375 392 376
f 375 391 392
f 376 393 377
f 376 392 393
f 377 394 378
f 377 393 394
f 378 395 379
f 378 394 395
f 379 396 380
f 379 395 396
f 380 397 381
f 380 396 397
f 381 398 382
f 381 397 398
f 382 399 383
f 382 398 399
f 383 400 384
f 383 399 400
f 384 385 369
f 384 400 385
f 385 402 386
f 385 401 402
f 386 403 387
f 386 402 403
f 387 404 388
f 387 403 404
f 388 405 389
f 388 404 405
f 389 406 390
f 389 405 406
f 390 407 391
f 390 406 407
f 391 408 392
f 391 407 408
f 392 409 393
f 392 408 409
f 393 410 394
f 393 409 410
f 394 411 395
f 394 410 411
f 395 412 396
f 395 411 412
f 396 413 397
f 396 412 413
f 397 414 398
f 397 413 414
f 398 415 399
f 398 414 415
f 399 416 400
f 399 415 416
f 400 401 385
f 400 416 401
f 401 418 402
f 401 417 418
f 402 419 403
f 402 418 419
f 403 420 404
f 403 419 420
f 404 421 405
f 404 420 421
f 405 422 406
f 405 421 422
f 406 423 407
f 406 422 423
f 407 424 408
f 407 423 424
f 408 425 409
f 408 424 425
f 409 426 410
f 409 425 426
f 410 427 411
f 410 426 427
f 411 428 412
f 411 427 428
f 412 429 413
f 412 428 429
f 413 430 414
f 413 429 430
f 414 431 415
f 414 430 431
f 415 432 416
f 415 431 432
f 416 417 401
f 416 432 417
f 417 434 418
f 417 433 434
f 418 435 419
f 418 434 435
f 419 436 420
f 419 435 436
f 420 437 421
f 420 436 437
f 421 438 422
f 421 437 438
f 422 439 423
f 422 438 439
f 423 440 424
f 423 439 440
f 424 441 425
f 424 440 441
f 425 442 426
f 425 441 442
f 426 443 427
f 426 442 443
f 427 444 428
f 427 443 444
f 428 445 429
f 428 444 445
f 429 446 430
f 429 445 446
f 430 447 431
f 430 446 447
f 431 448 432
f 431 447 448
f 432 433 417
f 432 448 433
f 433 450 434
f 433 449 450
f 434 451 435
f 434 450 451
f 435 452 436
f 435 451 452
f 436 453 437
f 436 452 453
f 437 454 438
f 437 453 454
f 438 455 439
f 438 454 455
f 439 456 440
f 439 455 456
f 440 457 441
f 440 456 457
f 441 458 442
f 441 457 458
f 442 459 443
f 442 458 459
f 443 460 444
f 443 459 460
f 444 461 445
f 444 460 461
f 445 462 446
f 445 461 462
f 446 463 447
f 446 462 463
f 447 464 448
f 447 463 464
f 448 449 433
f 448 464 449
f 449 466 450
f 449 465 466
f 450 467 451
f 450 466 467
f 451 468 452
f 451 467 468
f 452 469 453
f 452 468 469
f 453 470 454
f 453 469 470
f 454 471 455
f 454 470 471
f 455 472 456
f 455 471 472
f 456 473 457
f 456 472 473
f 457 474 458
f 457 473 474
f 458 475 459
f 458 474 475
f 459 476 460
f 459 475 476
f 460 477 461
f 460 476 477
f 461 478 462
f 461 477 478
f 462 479 463
f 462 478 479
f 463 480 464
f 463 479 480
f 464 465 449
f 464 480 465
f 465 482 466
f 465 481 482
f 466 483 467
f 466 482 483
f 467 484 468
f 467 483 484
f 468 485 469
f 468 484 485
f 469 486 470
f 469 485 486
f 470 487 471
f 470 486 487
f 471 488 472
f 471 487 488
f 472 489 473
f 472 488 489
f 473 490 474
f 473 489 490
f 474 491 475
f 474 490 491
f 475 492 476
f 475 491 492
f 476 493 477
f 476 492 493
f 477 494 478
f 477 493 494
f 478 495 479
f 478 494 495
f 479 496 480
f 479 495 496
f 480 481 465
f 480 496 481
f 481 498 482
f 481 497 498
f 482 499 483
f 482 498 499
f 483 500 484
f 483 499 500
f 484 501 485
f 484 500 501
f 485 502 486
f 485 501 502
f 486 503 487
f 486 502 503
f 487 504 488
f 487 503 504
f 488 505 489
f 488 504 505
f 489 506 490
f 489 505 506
f 490 507 491
f 490 506 507
f 491 508 492
f 491 507 508
f 492 509 493
f 492 508 509
f 493 510 494
f 493 509 510
f 494 511 495
f 494 510 511
f 495 512 496
f 495 511 512
f 496 497 481
f 496 512 497
f 497 2 498
f 497 1 2
f 498 3 499
f 498 2 3
f 499 4 500
f 499 3 4
f 500 5 501
f 500 4 5
f 501 6 502
f 501 5 6
f 502 7 503
f 502 6 7
f 503 8 504
f 503 7 8
f 504 9 505
f 504 8 9
f 505 10 506
f 505 9 10
f 506 11 507
f 506 10 11
f 507 12 508
f 507 11 12
f 508 13 509
f 508 12 13
f 509 14 510
f 509 13 14
f 510 15 511
f 510 14 15
f 511 16 512
f 511 15 16
f 512 1 497
f 512 16 1
